<svg width="56" height="56" viewBox="0 0 56 56" fill="none" xmlns="http://www.w3.org/2000/svg">
<rect width="56" height="56" rx="24" fill="white"/>
<ellipse cx="29.1594" cy="43.2629" rx="12.7512" ry="1.5456" fill="#F2F2F5"/>
<path fill-rule="evenodd" clip-rule="evenodd" d="M36.2144 28.9706C37.7287 26.9771 38.7124 25.0008 38.7124 22.8329C38.7124 18.8675 36.6029 15.3949 33.4448 13.476C33.4673 13.4897 33.4896 13.5034 33.5119 13.5171C32.1313 15.2579 31.2905 17.5659 31.2905 20.0977C31.2905 24.0152 33.3035 27.3966 36.2144 28.9706ZM35.4468 29.9318C34.4005 31.1854 33.1752 32.4588 31.8817 33.803C30.4346 35.3068 28.9021 36.8993 27.4397 38.652L27.5638 38.7469C27.9134 39.0143 27.9802 39.5144 27.7129 39.864L25.0264 43.3777C24.4026 44.1935 23.2357 44.3492 22.4198 43.7255L16.8587 39.4735C15.3057 38.2862 15.0093 36.0646 16.1967 34.5116C17.3558 32.9956 19.5005 32.6771 21.0467 33.7675C21.1928 33.5517 21.3241 33.3606 21.4469 33.1817L21.4472 33.1814C21.7441 32.7492 21.9919 32.3885 22.2804 31.9234C19.1756 29.9929 16.8308 26.758 16.8308 22.8329C16.8308 18.9989 18.8029 15.6255 21.788 13.6718C23.0971 15.3936 23.8893 17.6401 23.8893 20.0977C23.8893 24.0097 21.8819 27.3872 18.9775 28.964C19.2291 29.2906 19.4986 29.6038 19.7837 29.9026C22.9824 28.0473 25.0968 24.2827 25.0968 20.0977C25.0968 17.4627 24.2586 14.9944 22.8393 13.0643C24.3213 12.3145 25.9972 11.8921 27.7716 11.8921C29.4407 11.8921 31.0224 12.2658 32.4378 12.9342C30.9596 14.8828 30.083 17.4031 30.083 20.0977C30.083 24.3048 32.2198 28.0869 35.4468 29.9318Z" fill="url(#paint0_linear_2687_4060)"/>
<path fill-rule="evenodd" clip-rule="evenodd" d="M30.7207 36.8523L31.8838 37.6617C30.6324 39.1501 30.8159 41.3717 32.2985 42.6343C33.7868 43.9017 36.0209 43.7226 37.2883 42.2342L41.8269 36.9045C42.4928 36.1226 42.3987 34.949 41.6168 34.2832L38.2493 31.4156C37.9143 31.1303 37.4113 31.1706 37.1259 31.5057L37.0641 31.5783C36.7937 31.3358 36.5276 31.0913 36.2655 30.8455L30.7207 36.8523Z" fill="url(#paint1_linear_2687_4060)"/>
<defs>
<linearGradient id="paint0_linear_2687_4060" x1="35.8248" y1="15.3454" x2="17.5674" y2="39.6886" gradientUnits="userSpaceOnUse">
<stop offset="0.515" stop-color="#FD5E5E"/>
<stop offset="0.771963" stop-color="#DB5456"/>
<stop offset="0.77972" stop-color="#FD5E5E"/>
<stop offset="1" stop-color="#DB5456"/>
</linearGradient>
<linearGradient id="paint1_linear_2687_4060" x1="33.4605" y1="34.3001" x2="39.6205" y2="40.1801" gradientUnits="userSpaceOnUse">
<stop stop-color="#FD5E5E"/>
<stop offset="1" stop-color="#DB5456"/>
</linearGradient>
</defs>
</svg>
